<?xml version="1.0" encoding="UTF-8"?>
<svg id="_Слой_1" data-name="Слой_1" xmlns="http://www.w3.org/2000/svg" viewBox="0 0 1000 1000">
  <defs>
    <style>
      .cls-1 {
        fill: #3eb489;
      }
    </style>
  </defs>
  <g>
    <g>
      <path class="cls-1" d="M229.18,578.89v9.31h-4.43c-10.04,0-17.81-2.91-22.63-10.35-2.88-4.44-7.84-7.14-13.08-6.41-2.9.4-5.99.59-9.27.59-27.47,0-42.98-14.62-42.98-42.54v-74.44c0-27.92,15.51-42.54,42.98-42.54s42.98,14.62,42.98,42.54v74.44c0,11.77-2.78,21.18-7.98,28.08-6.52,8.66-.52,21.25,10.32,21.32.11,0,.21,0,.32,0h3.77ZM179.77,562.72c20.83,0,32.35-10.63,32.35-32.35v-76.22c0-21.71-11.52-32.35-32.35-32.35s-32.35,10.64-32.35,32.35v76.22c0,21.71,11.52,32.35,32.35,32.35Z"/>
      <path class="cls-1" d="M251.34,529.48v-114.77h10.64v115.43c0,21.71,11.3,32.57,31.9,32.57s31.68-10.86,31.68-32.57v-115.43h10.41v114.77c0,27.25-14.84,42.54-42.32,42.54s-42.32-15.51-42.32-42.54Z"/>
      <path class="cls-1" d="M380.64,525.4l-10.99,41.32c-.57,2.16-2.53,3.66-4.76,3.66h0c-3.23,0-5.59-3.06-4.76-6.19l38.6-145.46c.57-2.16,2.53-3.66,4.76-3.66h6.62c2.23,0,4.18,1.49,4.76,3.64l39.22,145.46c.84,3.13-1.51,6.21-4.76,6.21h-.88c-2.22,0-4.17-1.49-4.75-3.64l-11.2-41.34-1.45-5.37-19.9-74.05c-1.31-4.87-8.23-4.86-9.52.02l-20.98,79.39"/>
      <path class="cls-1" d="M481.98,424.02h-28.8c-2.57,0-4.65-2.08-4.65-4.65h0c0-2.57,2.08-4.65,4.65-4.65h77.55c2.57,0,4.65,2.08,4.65,4.65h0c0,2.57-2.08,4.65-4.65,4.65h-28.8c-2.57,0-4.65,2.08-4.65,4.65v136.48c0,2.57-2.08,4.65-4.65,4.65h-1.33c-2.57,0-4.65-2.08-4.65-4.65v-136.48c0-2.57-2.08-4.65-4.65-4.65Z"/>
      <path class="cls-1" d="M583.23,424.02h-28.8c-2.57,0-4.65-2.08-4.65-4.65h0c0-2.57,2.08-4.65,4.65-4.65h77.55c2.57,0,4.65,2.08,4.65,4.65h0c0,2.57-2.08,4.65-4.65,4.65h-28.8c-2.57,0-4.65,2.08-4.65,4.65v136.48c0,2.57-2.08,4.65-4.65,4.65h-1.33c-2.57,0-4.65-2.08-4.65-4.65v-136.48c0-2.57-2.08-4.65-4.65-4.65Z"/>
      <path class="cls-1" d="M659.44,414.71h39.44c29.25,0,42.76,11.96,42.76,37.89v3.32c0,21.49-7.98,32.57-26.59,36.34v.22c18.61,3.1,26.59,14.18,26.59,35.89v20.16c0,7.31.66,15.51,2.66,21.27h-10.64c-1.55-5.32-2.44-12.19-2.44-21.27v-20.61c0-21.93-9.53-30.35-34.34-30.35h-27.03v72.23h-10.41v-155.09ZM696,488.27c24.59,0,35.23-9.08,35.23-30.13v-3.32c0-21.93-9.3-30.8-32.35-30.8h-29.02v64.25h26.14Z"/>
    </g>
    <path class="cls-1" d="M791.39,525.4l-10.99,41.32c-.57,2.16-2.53,3.66-4.76,3.66h0c-3.23,0-5.59-3.06-4.76-6.19l38.6-145.46c.57-2.16,2.53-3.66,4.76-3.66h6.62c2.23,0,4.18,1.49,4.76,3.64l39.22,145.46c.84,3.13-1.51,6.21-4.76,6.21h-.88c-2.22,0-4.17-1.49-4.75-3.64l-11.2-41.34-1.45-5.37-19.9-74.05c-1.31-4.87-8.23-4.86-9.52.02l-20.98,79.39"/>
  </g>
  <rect class="cls-1" x="402.54" y="508.47" width="9.64" height="9.64" rx=".49" ry=".49" transform="translate(482.26 -137.71) rotate(45)"/>
  <rect class="cls-1" x="813.25" y="508.47" width="9.64" height="9.64" rx=".49" ry=".49" transform="translate(602.56 -428.12) rotate(45)"/>
</svg>