<?xml version="1.0" encoding="UTF-8"?>
<svg id="_Слой_1" data-name="Слой_1" xmlns="http://www.w3.org/2000/svg" viewBox="0 0 1000 1000">
  <defs>
    <style>
      .cls-1 {
        fill: #fff;
      }
    </style>
  </defs>
  <path class="cls-1" d="M777.44,499.61c0,35.52-6.79,69.46-19.18,100.57-10.16,25.56-24.09,49.25-41.14,70.32l-117.96-117.55-4.4-4.4,78.89,24.14c6.05-13.93,10.44-28.78,12.87-44.25,1.49-9.4,2.25-19.02,2.25-28.83,0-27.21-5.93-53.04-16.54-76.27-12.01-26.27-30.02-49.22-52.28-67.08-17.18-13.81-36.88-24.57-58.34-31.49-17.81-5.78-36.83-8.89-56.57-8.89-7.37,0-14.62.43-21.76,1.29-2.36.25-4.71.58-7.07.96-29.13,4.59-55.98,16.01-78.86,32.6-18.04,13.05-33.59,29.28-45.83,47.9-14.29,21.63-24.12,46.46-28.14,73.18-1.39,9.07-2.1,18.34-2.1,27.79,0,25.71,5.29,50.21,14.84,72.42,10.51,24.55,26.24,46.33,45.8,63.96,16.36,14.79,35.44,26.7,56.39,34.86,20.67,8.06,43.19,12.49,66.72,12.49,5.93,0,11.78-.28,17.55-.84,3.42-.3,6.84-.73,10.21-1.27,26.73-4.03,51.58-13.86,73.21-28.12l105.23,105.23-76.53-19.15c-9.65,5.24-19.66,9.93-29.99,13.96-30.85,12.16-64.49,18.85-99.68,18.85-11.15,0-22.14-.66-32.96-1.98-27.64-3.34-53.98-10.79-78.43-21.79-20.37-9.12-39.42-20.67-56.74-34.3-19.63-15.4-37.06-33.44-51.8-53.58-33.01-45.07-52.49-100.64-52.49-160.76,0-35.19,6.69-68.83,18.85-99.71,9.17-23.36,21.51-45.17,36.48-64.85,13.4-17.66,28.93-33.64,46.18-47.55,21.08-17.02,44.76-30.96,70.35-41.11,31.11-12.39,65.05-19.18,100.57-19.18,9.88,0,19.66.53,29.26,1.57,25.31,2.69,49.57,8.87,72.32,18.04,20.72,8.31,40.18,19.1,58.01,32.04,22.11,15.98,41.72,35.24,58.11,57.02,34.32,45.57,54.69,102.29,54.69,163.72Z"/>
</svg>